
<svg version="1.0" xmlns="http://www.w3.org/2000/svg"
 width="512.000000pt" height="512.000000pt" viewBox="0 0 512.000000 512.000000"
 preserveAspectRatio="xMidYMid meet">

<g transform="translate(0.000000,512.000000) scale(0.100000,-0.100000)"
fill="#fff" stroke="none">
<path d="M2454 5112 c-29 -19 -164 -324 -233 -527 -23 -66 -44 -126 -46 -134
-4 -11 -9 -10 -19 5 -22 29 -32 8 -14 -29 14 -31 13 -40 -38 -217 -29 -102
-53 -187 -53 -190 -1 -3 -5 1 -10 9 -17 27 -32 2 -17 -28 14 -26 11 -43 -40
-234 -85 -323 -113 -420 -125 -428 -7 -4 -9 -11 -5 -17 3 -6 -30 -137 -74
-292 -44 -155 -100 -365 -125 -468 -25 -103 -51 -198 -57 -212 -6 -14 -12 -41
-13 -60 -2 -59 -58 -365 -67 -368 -4 -2 -5 -14 -2 -27 l6 -24 -101 35 c-216
73 -448 120 -740 149 -154 16 -167 13 -155 -30 25 -86 956 -1980 990 -2015 13
-13 30 -11 146 19 179 45 391 117 583 196 88 37 174 72 190 77 17 6 37 14 45
19 88 49 208 105 218 102 6 -3 12 0 12 5 0 6 138 81 308 167 389 199 389 199
397 235 11 51 -29 400 -56 487 -8 25 -20 35 -67 54 -97 38 -182 88 -175 105 3
8 14 14 24 14 12 0 19 7 19 19 0 31 114 158 550 616 572 600 668 714 759 910
73 158 109 399 98 661 -6 131 -5 141 13 157 40 34 24 49 -150 145 -234 127
-357 199 -870 500 -574 338 -1069 622 -1084 622 -6 0 -16 -4 -22 -8z m100
-213 c26 -94 107 -268 186 -401 185 -309 498 -739 629 -862 17 -17 31 -33 31
-37 0 -4 -33 6 -72 21 l-73 28 -305 455 c-329 491 -514 786 -508 814 4 20 43
43 74 43 17 0 24 -11 38 -61z m97 32 c17 -6 29 -20 33 -38 12 -46 83 -217 127
-306 55 -109 163 -292 266 -450 46 -71 79 -125 73 -122 -18 11 -253 329 -332
450 -74 112 -196 345 -233 444 l-16 44 28 -6 c15 -3 40 -10 54 -16z m309 -258
c89 -166 135 -240 383 -611 103 -156 216 -336 250 -400 35 -64 71 -130 82
-147 17 -27 15 -26 -24 10 -24 22 -89 92 -145 155 -260 295 -438 541 -602 835
-68 122 -184 362 -184 380 0 4 37 -13 83 -38 l82 -44 75 -140z m-441 10 c170
-342 366 -661 539 -878 44 -55 79 -101 77 -103 -1 -2 -32 9 -68 24 l-66 27
-106 156 c-59 86 -162 235 -230 331 -124 175 -216 322 -273 435 l-30 60 27 68
c14 37 28 67 31 67 3 0 47 -84 99 -187z m569 -2 c73 -47 128 -87 122 -91 -5
-3 4 -14 20 -23 64 -38 171 -200 311 -472 106 -207 207 -388 328 -589 39 -64
71 -119 71 -121 0 -10 -89 35 -111 56 -14 13 -43 53 -64 89 -49 82 -406 622
-644 974 -101 147 -178 267 -173 265 5 -2 68 -42 140 -88z m-680 -109 c78
-155 154 -276 343 -545 86 -122 155 -223 154 -225 -1 -2 -23 7 -49 20 -53 26
-117 103 -278 335 -56 81 -142 204 -191 273 l-90 125 23 67 c13 38 24 68 26
68 1 0 29 -53 62 -118z m1004 -90 c65 -40 99 -68 135 -115 78 -99 135 -183
211 -312 75 -128 403 -757 397 -763 -2 -2 -21 5 -43 15 -34 15 -56 40 -128
148 -87 129 -284 456 -444 735 -102 179 -149 249 -214 320 -31 33 -41 48 -26
39 14 -9 64 -39 112 -67z m-953 -233 c147 -222 165 -254 147 -257 -30 -5 -44
-19 -51 -53 -4 -16 -10 -29 -13 -29 -4 0 -20 21 -37 48 -16 26 -85 125 -153
220 l-124 172 27 81 c15 44 29 78 32 76 2 -3 80 -119 172 -258z m1244 61 l135
-80 52 -127 c140 -345 263 -578 391 -746 18 -23 64 -74 102 -113 l70 -72 -28
-72 c-15 -39 -31 -68 -35 -63 -4 4 -34 67 -66 138 -193 433 -431 821 -691
1128 -41 48 -72 87 -70 87 3 0 66 -36 140 -80z m-1456 -67 c52 -92 156 -245
215 -319 51 -65 58 -79 53 -105 -7 -32 -26 -50 -33 -30 -2 6 -32 49 -65 93
-110 144 -122 162 -176 247 -52 81 -53 85 -42 122 7 22 14 39 16 39 2 0 16
-21 32 -47z m1863 -168 c96 -54 178 -104 182 -109 4 -6 22 -51 39 -101 45
-126 125 -294 143 -301 13 -5 16 -22 16 -78 0 -82 -18 -238 -28 -248 -15 -15
-572 918 -572 957 0 4 10 1 23 -7 12 -8 101 -59 197 -113z m-1853 -15 c38 -63
96 -151 129 -195 32 -44 65 -99 73 -122 13 -38 11 -47 -19 -139 -18 -55 -35
-102 -39 -106 -3 -4 -71 89 -150 206 l-144 214 13 51 c6 28 14 51 16 51 1 0
43 -66 91 -147 120 -201 191 -273 201 -203 3 17 0 21 -12 17 -20 -8 -68 55
-185 243 l-83 131 12 52 c13 52 20 71 25 65 1 -2 33 -55 72 -118z m2217 -244
c3 -32 6 -84 6 -115 l-1 -56 -38 90 c-21 50 -50 113 -64 142 -15 29 -27 55
-27 58 0 3 26 -9 59 -27 l59 -32 6 -60z m-1729 -11 c147 -90 349 -187 580
-278 105 -41 287 -114 405 -160 118 -47 248 -101 289 -119 l74 -34 -354 -410
c-415 -480 -530 -615 -665 -784 -111 -138 -299 -387 -354 -468 -27 -39 -39
-50 -53 -46 -15 5 -18 2 -13 -14 5 -14 -17 -57 -81 -155 -184 -283 -185 -285
-173 -306 5 -11 18 -22 27 -25 10 -3 96 -26 192 -51 341 -90 374 -126 178
-191 -146 -48 -558 -201 -709 -262 -271 -112 -285 -106 -409 173 -63 141 -323
661 -355 709 -17 26 -16 26 7 17 39 -15 132 -57 287 -130 166 -78 218 -93 229
-66 3 10 0 30 -8 44 -14 24 -9 43 73 295 49 147 149 478 224 735 74 256 175
604 224 773 101 345 259 830 269 824 3 -2 56 -34 116 -71z m-515 -140 c62 -99
122 -190 133 -203 l21 -22 -29 -90 c-16 -50 -32 -89 -35 -88 -4 2 -46 53 -95
113 -48 61 -114 140 -146 176 -57 65 -58 68 -48 100 6 19 13 40 15 48 2 7 35
-37 72 -97 88 -146 125 -197 157 -218 19 -13 29 -14 37 -6 9 9 5 19 -14 39
-33 36 -119 156 -185 258 l-53 81 17 57 c13 46 19 55 28 45 6 -7 62 -94 125
-193z m-110 -218 c52 -72 116 -154 142 -181 l48 -49 -21 -71 -21 -70 -27 31
c-14 17 -49 58 -78 91 -28 34 -82 104 -118 157 l-68 97 18 64 c9 35 20 64 24
64 3 0 49 -60 101 -133z m-51 -202 c80 -122 117 -168 160 -196 l24 -15 -39
-130 c-21 -71 -42 -130 -46 -132 -4 -2 -8 -11 -8 -20 0 -10 -11 -1 -27 23 -16
22 -78 106 -140 188 l-111 149 14 51 c8 29 16 56 17 61 2 4 43 -45 92 -110
110 -147 162 -204 186 -204 34 0 20 26 -58 115 -119 134 -203 237 -203 248 0
6 8 38 17 71 15 54 18 58 30 40 8 -10 49 -73 92 -139z m2220 -161 l73 -115
-33 -49 c-19 -27 -37 -50 -40 -50 -17 0 -159 207 -159 232 0 13 68 98 78 98 4
-1 40 -52 81 -116z m-2357 -87 c25 -45 84 -136 131 -202 80 -114 83 -121 74
-152 -6 -18 -13 -33 -16 -33 -11 1 -141 165 -208 262 l-66 97 12 56 c7 30 15
55 19 55 4 0 28 -38 54 -83z m2203 -2 c20 -42 56 -97 81 -122 l44 -47 -20 -20
-20 -20 -45 44 c-46 45 -125 157 -125 177 0 10 38 63 45 63 2 0 20 -34 40 -75z
m-71 -95 c26 -45 63 -99 83 -121 l36 -40 -28 -29 -28 -29 -29 22 c-34 25 -148
170 -148 187 0 9 52 79 66 89 1 1 22 -35 48 -79z m-1997 -300 l44 -49 -18 -60
c-10 -34 -21 -61 -24 -61 -9 0 -133 169 -203 278 l-67 104 17 59 17 59 95
-141 c53 -77 115 -163 139 -189z m2005 66 l22 -16 -34 -36 -35 -36 -87 93
c-49 52 -88 97 -88 102 0 4 17 28 37 52 l37 44 62 -93 c35 -52 73 -101 86
-110z m-2184 -60 c51 -79 110 -164 132 -189 l40 -45 -16 -51 c-8 -28 -17 -51
-19 -51 -11 0 -148 169 -207 256 l-67 99 15 63 c9 34 19 62 23 62 3 -1 48 -65
99 -144z m1987 74 c26 -36 63 -81 81 -101 l34 -35 -24 -23 -25 -23 -60 46
c-33 26 -72 67 -87 91 l-26 44 28 36 c15 20 28 34 29 33 2 -2 24 -32 50 -68z
m-49 -151 c16 -15 41 -33 56 -40 l26 -14 -39 -45 -40 -45 -43 49 c-24 27 -56
73 -72 102 l-29 53 29 30 29 31 28 -48 c15 -26 40 -59 55 -73z m-1859 -271
l46 -46 -18 -66 c-10 -36 -21 -66 -24 -66 -14 0 -205 275 -250 359 -11 20 -6
59 15 120 2 8 43 -43 95 -120 50 -74 111 -155 136 -181z m1737 217 c20 -35 49
-77 65 -92 l28 -28 -90 -98 -90 -98 -39 43 c-21 24 -51 64 -67 90 l-30 47 34
40 33 41 25 -43 c41 -68 107 -121 123 -96 3 6 -13 26 -36 46 -23 20 -53 53
-66 75 -27 42 -28 38 30 110 17 20 33 35 37 32 4 -2 24 -33 43 -69z m-1785
-404 l42 -50 -20 -72 c-11 -39 -22 -74 -25 -76 -2 -3 -11 8 -20 24 -8 16 -41
65 -73 109 -33 43 -83 116 -112 162 l-53 82 17 73 c10 39 20 76 22 80 3 5 44
-57 93 -137 48 -80 106 -168 129 -195z m1581 178 c19 -34 48 -72 63 -85 l28
-24 -19 -27 c-24 -33 -71 -78 -75 -72 -2 2 -19 27 -39 54 -20 28 -48 61 -62
74 -14 14 -26 28 -26 31 0 10 82 110 89 110 3 0 22 -28 41 -61z m-1749 -206
c51 -82 107 -163 125 -182 l31 -34 -15 -59 c-8 -33 -18 -56 -22 -51 -12 15
-165 243 -206 308 -40 63 -41 66 -31 115 5 27 13 50 17 50 5 0 50 -66 101
-147z m1612 103 c9 -13 39 -50 67 -82 l51 -58 -42 -42 -42 -43 -46 74 c-43 70
-61 89 -61 64 0 -11 47 -109 70 -146 13 -20 12 -25 -15 -53 l-29 -30 -23 27
c-13 16 -40 53 -59 83 -32 47 -35 57 -24 75 19 29 124 154 131 154 4 1 14 -10
22 -23z m-1697 -198 c26 -46 80 -133 120 -194 l73 -112 -24 -87 c-13 -48 -25
-89 -28 -91 -2 -2 -54 81 -116 184 -108 179 -112 189 -107 232 6 52 26 150 31
150 2 0 25 -37 51 -82z m-964 38 c4 -6 8 -25 8 -42 0 -46 35 -175 73 -270 19
-46 33 -84 32 -84 -2 0 -43 73 -93 163 -50 89 -103 184 -118 211 l-27 49 59
-8 c32 -4 62 -12 66 -19z m90 -10 c24 -5 30 -18 64 -118 87 -266 300 -692 492
-985 8 -13 12 -23 9 -23 -3 0 -38 51 -78 113 -40 61 -118 177 -173 256 -185
267 -287 460 -340 645 -29 98 -32 127 -13 122 6 -3 24 -7 39 -10z m364 -141
c33 -96 98 -229 139 -287 31 -42 33 -48 16 -48 -11 0 -23 -4 -26 -10 -3 -5
-10 -10 -15 -10 -14 0 -180 262 -226 359 -29 60 -49 90 -55 84 -15 -15 56
-172 144 -317 43 -72 133 -246 199 -386 120 -255 320 -711 315 -717 -4 -4
-234 356 -339 532 -175 292 -304 545 -407 797 -28 70 -51 129 -51 131 0 2 63
-10 141 -27 l141 -31 24 -70z m2059 68 c20 -38 45 -77 55 -88 19 -20 18 -21
-13 -62 -18 -23 -34 -42 -37 -42 -5 -1 -64 85 -104 150 -15 25 -15 27 20 67
19 23 37 42 39 42 2 0 20 -30 40 -67z m-2008 -18 l52 -15 102 -177 c57 -98
122 -201 146 -230 l44 -54 -38 17 c-21 8 -54 22 -74 30 -29 12 -51 37 -105
117 -61 92 -192 327 -182 327 3 0 27 -7 55 -15z m256 -81 c38 -15 77 -24 90
-20 20 4 29 -9 90 -129 38 -74 88 -160 112 -191 37 -50 41 -61 34 -87 -5 -16
-10 -31 -12 -33 -2 -3 -30 35 -62 83 -140 210 -293 398 -311 380 -8 -7 4 -25
58 -89 38 -45 249 -370 244 -376 -2 -2 -36 11 -75 29 -53 24 -70 36 -66 47 6
17 -69 148 -186 323 l-78 117 47 -14 c26 -8 78 -26 115 -40z m1705 -91 c12
-17 22 -35 22 -40 0 -4 -17 -28 -38 -52 l-38 -44 -44 61 c-23 34 -46 62 -51
62 -20 0 -14 -21 27 -88 l44 -73 -26 -34 c-15 -19 -28 -35 -29 -35 -6 0 -135
159 -135 166 0 3 21 31 47 62 26 32 67 81 92 110 l44 54 31 -59 c17 -32 41
-73 54 -90z m-183 -250 c115 -174 151 -220 261 -333 l82 -85 15 -88 c14 -87
14 -89 -7 -101 -66 -40 -100 -57 -111 -53 -6 3 -40 45 -75 93 -128 178 -275
371 -342 451 -48 57 -67 86 -61 96 15 26 128 166 134 167 3 0 50 -66 104 -147z
m-1859 -383 c304 -476 574 -921 574 -945 0 -12 -52 -4 -105 16 -35 13 -64 32
-79 52 -14 18 -79 147 -146 287 -66 140 -197 406 -291 590 -94 184 -168 332
-165 330 2 -3 98 -151 212 -330z m1669 212 c133 -205 228 -347 257 -384 16
-21 28 -38 26 -38 -3 0 -49 22 -104 50 -54 27 -156 68 -226 91 -116 38 -129
44 -150 78 -52 80 -52 86 -7 146 23 30 43 55 45 55 2 0 11 -15 20 -32 23 -45
179 -242 216 -273 21 -18 34 -23 41 -16 13 13 -11 50 -84 126 -60 64 -179 206
-179 216 0 9 61 89 68 89 4 0 38 -49 77 -108z m441 6 l51 -20 11 -66 c6 -36
10 -67 8 -69 -1 -2 -38 41 -81 94 -44 54 -70 93 -60 89 11 -4 43 -17 71 -28z
m-684 -189 l17 -41 -37 7 c-20 4 -39 8 -40 10 -5 5 31 65 38 65 3 0 13 -19 22
-41z m603 -355 c-43 -32 -146 -85 -155 -79 -5 3 -18 18 -29 34 l-20 28 69 27
c68 27 90 50 74 78 -4 7 13 -6 37 -30 43 -42 43 -43 24 -58z m-1556 -266 c208
-314 227 -347 208 -352 -39 -10 -44 -7 -77 57 -65 122 -234 423 -280 497 -152
246 -116 197 149 -202z m1346 196 c15 -19 25 -36 24 -38 -56 -37 -54 -37 -94
4 l-39 39 35 15 c45 20 43 21 74 -20z m-107 -46 c23 -18 42 -35 42 -38 0 -4
-17 -16 -38 -28 l-39 -21 -51 36 c-29 20 -52 39 -52 43 0 7 66 37 86 39 6 1
29 -13 52 -31z m-136 -58 c22 -22 44 -40 49 -40 22 0 5 -18 -35 -37 l-43 -21
-52 52 -53 53 39 16 c52 22 50 22 95 -23z m-110 -64 l47 -53 -41 -23 -40 -22
-59 58 -60 59 38 17 c21 10 45 18 53 18 8 0 36 -24 62 -54z m-172 6 c0 -4 20
-30 45 -59 25 -28 45 -55 45 -61 0 -7 -42 -32 -55 -32 -6 0 -105 121 -105 129
0 4 12 12 28 18 35 14 42 15 42 5z m-57 -108 c26 -33 47 -63 47 -66 0 -3 -12
-9 -26 -12 -21 -6 -37 2 -87 44 -34 27 -66 50 -70 50 -22 0 3 -38 51 -77 l53
-43 -36 -16 c-41 -17 -40 -17 -144 74 l-44 39 99 40 c54 22 102 38 105 34 3
-3 27 -33 52 -67z m-211 -88 l68 -64 -48 -19 -47 -20 -60 50 c-33 28 -66 56
-74 63 -12 11 -8 16 30 33 24 11 49 20 54 20 6 0 40 -28 77 -63z m-73 -100
c10 -11 3 -17 -35 -30 -57 -19 -54 -19 -54 -4 0 7 -15 28 -34 48 -46 48 -54
78 -24 89 19 7 32 1 79 -40 31 -27 61 -55 68 -63z m-189 57 c0 -23 46 -80 70
-88 29 -9 25 -22 -9 -28 -16 -3 -40 -9 -54 -12 -23 -6 -30 0 -63 49 -20 31
-35 58 -33 60 11 10 66 35 77 36 6 0 12 -7 12 -17z"/>
<path d="M4070 4051 c0 -6 39 -74 87 -153 47 -79 122 -210 165 -293 105 -199
138 -242 154 -200 15 38 -71 194 -270 493 -95 141 -136 187 -136 153z"/>
<path d="M2820 1519 c0 -19 218 -334 299 -430 73 -88 181 -189 202 -189 28 0
-3 50 -97 161 -59 68 -170 202 -247 297 -130 160 -157 188 -157 161z"/>
</g>
</svg>
