<svg version="1.0" xmlns="http://www.w3.org/2000/svg"
 width="512.000000pt" height="512.000000pt" viewBox="0 0 512.000000 512.000000"
 preserveAspectRatio="xMidYMid meet">

<g transform="translate(0.000000,512.000000) scale(0.100000,-0.100000)"
fill="#fff" stroke="none">
<path d="M4865 4910 c-314 -120 -519 -157 -818 -147 l-180 6 -27 -31 c-70 -77
-70 -75 -44 -191 20 -88 88 -238 148 -321 145 -203 432 -386 606 -386 112 0
178 72 120 130 l-20 20 129 248 c70 136 163 308 206 382 129 221 139 242 131
273 -8 32 -59 67 -96 66 -14 0 -83 -22 -155 -49z m-92 -287 c-20 -38 -45 -81
-54 -96 l-17 -29 -24 34 c-14 18 -35 49 -46 69 l-22 37 87 25 c49 14 94 25
100 26 7 1 -3 -28 -24 -66z m-213 -17 c0 -20 44 -116 74 -160 25 -36 26 -40
11 -63 l-16 -24 -72 67 c-76 70 -161 164 -154 171 7 6 89 21 125 22 21 1 32
-4 32 -13z m-536 -16 c27 0 36 -9 78 -73 60 -92 204 -264 260 -310 48 -39 99
-67 122 -67 8 0 17 -4 21 -9 6 -11 -25 -81 -37 -81 -19 0 -124 53 -190 95 -95
62 -187 151 -257 250 -57 81 -121 186 -121 200 0 4 21 5 46 1 26 -3 61 -6 78
-6z m320 -37 c23 -49 144 -208 194 -257 36 -34 39 -41 30 -62 -6 -13 -15 -24
-19 -24 -5 0 -62 40 -127 89 -112 85 -178 147 -251 240 l-32 40 63 4 c35 2 77
4 94 5 26 2 33 -3 48 -35z"/>
<path d="M3255 4446 c-168 -54 -351 -172 -650 -420 -313 -259 -490 -480 -560
-696 -24 -74 -22 -73 -55 -49 -32 24 -59 20 -67 -11 -3 -11 -7 -20 -9 -20 -3
0 -62 22 -132 49 -149 58 -269 91 -327 91 -82 0 -126 -34 -412 -318 -148 -147
-394 -397 -546 -557 -152 -159 -324 -333 -382 -385 -113 -103 -130 -132 -103
-186 22 -47 263 -144 728 -295 135 -43 257 -79 271 -79 33 0 58 24 120 118 79
117 302 388 329 400 4 1 5 -22 2 -53 -18 -218 131 -405 376 -471 74 -20 231
-28 305 -16 31 5 57 8 57 7 0 -2 -108 -103 -240 -226 -265 -246 -278 -264
-245 -329 11 -22 21 -85 31 -194 8 -88 16 -174 19 -191 3 -16 12 -93 20 -170
8 -77 22 -161 30 -187 19 -54 64 -98 101 -98 27 0 74 40 74 63 0 9 15 18 38
22 99 18 199 92 474 351 116 109 284 266 372 349 89 82 190 180 226 217 70 72
132 164 130 194 -3 89 -22 401 -29 491 -10 117 -32 187 -73 230 l-21 22 24 5
c13 3 49 7 79 10 129 13 303 73 447 153 291 163 591 485 733 788 63 134 83
210 84 321 1 77 -2 95 -18 113 -11 12 -23 21 -28 21 -6 0 -33 20 -61 44 -29
24 -113 81 -187 126 -165 101 -226 146 -309 224 -145 139 -239 291 -281 453
-11 46 -39 68 -72 60 -14 -4 -28 3 -45 24 -23 26 -30 29 -86 28 -35 0 -93 -11
-132 -23z m224 -183 c33 -177 124 -328 310 -513 188 -187 351 -301 477 -334
l42 -11 -25 -67 -25 -68 -101 95 c-100 96 -276 240 -607 497 -171 132 -352
283 -358 297 -1 4 41 31 94 61 54 30 113 67 133 82 20 15 39 28 42 28 3 0 11
-30 18 -67z m-143 -351 c121 -120 300 -286 399 -369 199 -165 457 -369 475
-375 9 -3 8 -14 -6 -40 l-19 -36 -65 59 c-78 71 -198 168 -595 484 -165 131
-347 284 -403 340 l-104 101 49 27 c26 14 49 27 49 27 1 0 100 -98 220 -218z
m-330 106 c29 -56 98 -139 190 -230 154 -150 823 -728 908 -784 l25 -16 -41
-61 c-41 -60 -42 -61 -52 -37 -23 53 -56 87 -240 247 -177 153 -327 276 -646
528 -69 54 -166 139 -217 188 -62 61 -97 88 -107 84 -9 -4 -16 -11 -16 -16 0
-16 141 -180 216 -251 38 -36 206 -186 374 -335 168 -148 352 -315 410 -371
58 -56 126 -113 151 -127 l47 -24 -69 -82 -70 -81 -30 22 c-17 13 -101 99
-187 193 -338 366 -473 495 -762 731 -137 111 -214 171 -245 189 -15 9 -4 22
81 91 105 86 231 173 251 174 7 0 20 -15 29 -32z m-388 -310 c177 -119 561
-487 809 -773 120 -139 285 -306 333 -337 l25 -16 -29 -31 -29 -30 -58 52
c-870 786 -917 827 -1119 972 -52 37 -97 70 -99 72 -5 3 109 123 117 123 2 0
24 -14 50 -32z m-96 -230 c204 -165 349 -298 630 -579 152 -152 320 -316 373
-366 l95 -89 -63 -37 c-35 -20 -69 -37 -74 -37 -6 0 -46 28 -90 63 -43 35
-134 105 -203 157 -69 51 -170 132 -225 179 -96 82 -665 647 -665 660 0 7 100
141 105 141 2 0 54 -41 117 -92z m-120 -261 c245 -283 604 -670 717 -771 36
-32 97 -79 135 -104 l69 -45 -58 -18 -57 -17 -82 67 c-45 37 -152 116 -237
176 -192 136 -260 189 -424 333 -143 127 -339 312 -333 316 1 2 14 9 26 15 13
7 30 29 39 49 41 102 66 151 74 146 5 -3 64 -69 131 -147z m-722 -178 c308
-280 783 -674 1162 -964 l157 -120 21 -90 c12 -49 24 -99 27 -110 3 -11 -70
54 -164 145 -251 246 -451 414 -908 767 -582 448 -596 459 -577 476 24 22 61
36 97 36 25 1 57 -23 185 -140z m248 65 c77 -16 84 -16 101 0 17 16 23 12 110
-81 108 -115 369 -364 526 -503 124 -109 254 -208 334 -253 32 -18 49 -33 40
-35 -44 -14 -66 -81 -37 -110 6 -6 9 -14 7 -17 -3 -3 -30 16 -60 42 -118 101
-301 242 -674 517 -370 274 -606 456 -633 489 -10 12 8 11 95 -9 59 -13 145
-31 191 -40z m-395 -202 c249 -230 598 -548 762 -692 271 -239 681 -572 745
-605 26 -14 28 -20 35 -104 4 -49 4 -95 0 -102 -5 -7 -22 12 -48 52 -80 128
-201 255 -387 410 -30 25 -290 222 -577 438 -479 359 -677 513 -809 629 l-49
44 60 53 c33 30 64 54 68 55 5 0 95 -80 200 -178z m-308 -63 c39 -39 144 -137
234 -217 152 -136 162 -146 140 -154 -13 -5 -44 -29 -69 -54 l-46 -44 -64 47
c-102 73 -410 338 -410 352 0 7 133 141 140 141 3 0 37 -32 75 -71z m-75 -322
c107 -106 208 -201 223 -212 l29 -20 -89 -95 c-48 -53 -110 -122 -138 -153
l-50 -58 -60 37 c-33 21 -82 56 -110 78 -70 55 -305 288 -305 302 0 6 9 19 19
28 19 17 23 15 118 -40 54 -31 154 -92 223 -135 145 -90 167 -98 199 -72 22
18 23 21 8 49 -9 17 -38 42 -73 61 -65 36 -260 139 -341 180 -29 15 -53 30
-53 33 0 8 190 210 198 210 3 0 94 -87 202 -193z m810 -312 c124 -98 283 -228
353 -289 l128 -110 -37 -19 c-21 -11 -69 -30 -107 -43 l-69 -23 -181 132
c-100 72 -209 154 -242 182 -67 56 -195 184 -195 196 0 4 23 34 50 65 31 35
50 66 50 82 0 18 3 22 13 15 6 -5 113 -90 237 -188z m-1315 68 c63 -82 289
-301 355 -344 28 -18 50 -38 50 -46 0 -18 -78 -73 -103 -73 -12 0 -118 62
-236 139 -246 158 -243 156 -294 164 -38 6 -39 6 -32 -21 10 -39 14 -42 169
-154 175 -126 170 -121 109 -103 -89 26 -135 44 -275 108 l-138 62 168 166
c92 92 169 167 172 167 3 1 28 -29 55 -65z m1114 -323 c47 -47 133 -123 190
-170 58 -46 99 -86 92 -88 -6 -2 -47 1 -90 7 -159 21 -275 91 -327 197 -21 44
-27 73 -31 147 l-4 92 42 -50 c23 -27 81 -88 128 -135z m1014 -444 l206 -189
-27 -33 c-15 -19 -30 -34 -34 -34 -4 0 -72 54 -150 120 -207 173 -295 215
-357 169 -34 -25 -39 -39 -15 -39 9 0 46 -16 83 -35 60 -32 129 -89 298 -245
l61 -57 -66 -66 -67 -66 -125 78 c-142 87 -360 248 -360 265 -1 17 324 332
336 326 6 -3 103 -90 217 -194z m-464 -293 c146 -136 221 -200 273 -235 l37
-24 -49 -49 -49 -49 -48 34 c-141 99 -285 213 -402 316 -3 3 101 124 107 124
2 0 61 -53 131 -117z m-220 -95 c27 -29 117 -116 200 -193 l151 -139 -63 -58
c-34 -31 -66 -57 -72 -57 -5 -1 -83 66 -172 148 -89 82 -176 160 -193 175
l-31 26 63 74 c35 41 64 75 65 75 1 1 24 -23 52 -51z m56 -424 l91 -91 -43
-37 -43 -38 -114 107 -114 106 -11 82 c-7 45 -14 96 -18 112 -5 26 6 18 77
-60 46 -49 124 -131 175 -181z m-103 -261 c-26 -23 -50 -42 -53 -43 -7 0 -49
191 -49 223 1 18 15 6 74 -58 l74 -80 -46 -42z"/>
</g>
</svg>
